<svg id="Layer_1" xmlns="http://www.w3.org/2000/svg" viewBox="0 0 832 234"><style>.st0{fill:#00945E;} .st1{fill:#87C879;} .st2{fill-rule:evenodd;clip-rule:evenodd;fill:#00945E;} .st3{fill-rule:evenodd;clip-rule:evenodd;fill:#87C879;}</style><path class="st0" d="M367.6 27.7v15h-17.5v86.4h19.8c14 0 17-3.5 24.6-33.1h14v48.1H305.3v-15.4h15.9V43.1h-15.9V27.7h62.3zm74.9 78.4c1.1 19.3 8.8 25.7 21.9 25.7 9.9 0 16.1-4.1 19.8-14.5H498c-3.2 17.3-14.9 28.7-38.1 28.7-27.6 0-44.4-17-44.4-42.5 0-25.1 18.6-44.1 43.5-44.1 28 0 41.1 19.8 39.8 46.7h-56.3zm.1-11.1h31c-.9-16.8-5.5-23.5-15-23.5-9.2 0-14.9 5.8-16 23.5zm65 20.4h13.6c7.3 11.2 17.3 18.8 27.4 18.8 7.4 0 10.8-3.4 10.8-8.5 0-6.4-4.6-8.9-21.1-13.1-19.8-5.1-29.6-11.5-29.6-26.4 0-14.5 11.7-26.7 30.1-26.7 10.8 0 18.6 4.1 23.7 10.3l2.8-9.9h13.8v28.3h-13.6c-6.4-9.9-14.9-16.8-23.7-16.8-6.9 0-10.4 3.2-10.4 8 0 6 4.8 8.3 20.5 12.4 18.1 4.8 30.3 10.6 30.3 27.1 0 14.3-11.2 27.3-31.3 27.3-12.9 0-21.6-5.3-26.9-11.3l-2.8 11.2h-13.6v-30.7zm80.2 14.1h13.5V37.1h-13.5v-15h39.5v107.4h13.5v14.7h-52.9v-14.7zm83-23.4c1.1 19.3 8.9 25.7 21.9 25.7 9.9 0 16.1-4.1 19.8-14.5h13.8c-3.2 17.3-14.9 28.7-38.1 28.7-27.6 0-44.4-17-44.4-42.5 0-25.1 18.6-44.1 43.5-44.1 28 0 41.1 19.8 39.8 46.7h-56.3zM671 95h31c-.9-16.8-5.5-23.5-15-23.5-9.3 0-15 5.8-16 23.5zm87.4 60.7c0 2.3-.5 4.8-1.4 6.5 7.3-.9 11.7-4.2 16.8-16.6L740.5 76h-11V61.4h51.9v14.7h-12.6l18.6 43.4L804 76.1h-10.4V61.4h36.3v14.7h-10.1l-28.3 65.8c-8.5 20-18.1 33.1-37.2 33.1-15 0-22.8-7.8-22.8-18.4 0-8.3 5.5-14.9 13.6-14.9 9.1 0 13.3 7.1 13.3 14z"/><path class="st1" d="M321.5 178.7h4v18.6c0 7.6 3.2 10 7.3 10 4.2 0 7.4-2.4 7.4-10v-18.6h3.8v18.5c0 10.1-4.8 13.6-11.3 13.6-6.4 0-11.3-3.5-11.3-13.6v-18.5zm48.6 0h4.1l11.4 19.8 3.4 6.5h.2c-.2-3.2-.5-6.7-.5-10v-16.3h3.8v31.5h-4.1L377 190.4l-3.4-6.5h-.2c.2 3.2.5 6.5.5 9.8v16.5h-3.8v-31.5zm48.6 0h4v31.5h-4v-31.5zm25.8 0h4.3l5 17c1.2 3.7 1.9 6.7 3.1 10.4h.2c1.2-3.7 1.9-6.7 3-10.4l5-17h4.1l-10 31.5h-4.7l-10-31.5zm46.6 0h18.1v3.4H495v9.9h12v3.4h-12v11.4h14.6v3.4H491v-31.5zm60.1 31.5l-7.6-13.3h-5.7v13.3h-4v-31.5h9.8c6.4 0 11 2.3 11 8.8 0 4.9-2.8 7.9-7.1 8.9l8 13.7h-4.4zm-13.3-16.6h5.3c4.9 0 7.6-2 7.6-6.1s-2.7-5.6-7.6-5.6h-5.3v11.7zm40.8 9.7c2.3 2.4 5.4 3.9 8.7 3.9 4.1 0 6.6-2.1 6.6-5.1 0-3.2-2.3-4.2-5.2-5.6l-4.5-2c-3-1.2-6.4-3.5-6.4-8.1 0-4.8 4.2-8.4 9.9-8.4 3.7 0 7.1 1.6 9.3 3.9l-2.2 2.6c-1.9-1.8-4.2-3-7.2-3-3.5 0-5.9 1.8-5.9 4.6 0 3 2.7 4.2 5.2 5.2l4.5 1.9c3.6 1.6 6.5 3.7 6.5 8.4 0 5-4.1 9-10.7 9-4.4 0-8.3-1.8-11-4.7l2.4-2.6zm43.1-24.6h4v31.5h-4v-31.5zm36.6 3.4h-9.5v-3.4h23v3.4h-9.5v28.1h-4v-28.1zm41.2 15.9l-9.5-19.3h4.3l4.1 8.9c1 2.3 2 4.5 3 6.9h.2c1.1-2.4 2.2-4.6 3.2-6.9l4-8.9h4.2l-9.5 19.3v12.2h-4V198z"/><path class="st2" d="M93.8 3.3l23.9 23.3v46.9L93.8 51.1l-90.3 88V93.9L93.8 3.3zM73.2 115.4l44.5 46.2v45l-69.4-67.5 24.9-23.7zm47.8 45.1l69.4-65.6L121 27.4l24-24.1 90.2 91.6-90.2 88-24-22.4z"/><path class="st3" d="M117.7 73.5l-69.4 65.6 69.4 67.5-23.9 24.1-90.3-91.6 90.3-88 23.9 22.4zM145 230.7l-24-23.3v-46.9l24 22.4 90.2-88v45.2L145 230.7zm20.5-112.2L121 72.4v-45l69.4 67.5-24.9 23.6z"/></svg>